<svg
  xmlns="http://www.w3.org/2000/svg"
  id="text-bulleted-list-medium"
  fill="currentColor"
  aria-hidden="true"
  data-rtl="true"
  data-supported-dps="24x24"
  viewBox="0 0 24 24"
  data-token-id="407"
  width="24"
  height="24"
  class="_9f045a47 afcaf490 ee444213 fdad8d53"
  role="img"
  aria-label=""
  style="width: 24px; min-width: 24px; height: 24px; min-height: 24px"
>
  <path
    d="M7 4a2 2 0 1 1-2-2 2 2 0 0 1 2 2m2-1v2h12V3zm-4 7a2 2 0 1 0 2 2 2 2 0 0 0-2-2m4 3h12v-2H9zm-4 5a2 2 0 1 0 2 2 2 2 0 0 0-2-2m4 3h12v-2H9z"
  ></path>
</svg>
